<svg width="40" height="40" viewBox="0 0 40 40" fill="none" xmlns="http://www.w3.org/2000/svg">
<g opacity="0.4" clip-path="url(#clip0)">
<path d="M20.002 0C8.95541 0 0 8.95541 0 20.002C0 31.0486 8.95541 40.0041 20.002 40.0041C31.0486 40.0041 40.0041 31.0486 40.0041 20.002C40 8.95541 31.0446 0 20.002 0ZM27.6792 10.1203H24.8964C22.7121 10.1203 22.2914 11.1599 22.2914 12.6808V16.038H27.4972L26.8177 21.2964H22.2874V34.7861H16.8591V21.2964H12.3208V16.038H16.8591V12.159C16.8591 7.66104 19.6097 5.20983 23.6222 5.20983C25.5435 5.20983 27.1979 5.3514 27.6792 5.41612V10.1203Z" fill="white"/>
</g>
<defs>
<clipPath id="clip0">
<rect width="40" height="40" fill="white"/>
</clipPath>
</defs>
</svg>
