<svg width="40" height="40" viewBox="0 0 40 40" fill="none" xmlns="http://www.w3.org/2000/svg">
<g opacity="0.4" clip-path="url(#clip0)">
<rect width="40" height="40" fill="black"/>
<path d="M29.4226 13.0933C29.2042 12.5271 28.9413 12.1266 28.5165 11.7019C28.0918 11.2772 27.6914 11.0183 27.1291 10.7958C26.7044 10.63 26.0613 10.4318 24.8842 10.3792C23.6101 10.3226 23.2258 10.3064 20.002 10.3064C16.7742 10.3064 16.394 10.3185 15.1198 10.3792C13.9428 10.4318 13.3037 10.63 12.8749 10.7958C12.3127 11.0143 11.9082 11.2772 11.4875 11.7019C11.0628 12.1226 10.8039 12.5271 10.5815 13.0933C10.4156 13.5181 10.2215 14.1572 10.1648 15.3383C10.1082 16.6124 10.0961 16.9967 10.0961 20.2205C10.0961 23.4483 10.1082 23.8285 10.1648 25.1027C10.2174 26.2797 10.4156 26.9188 10.5815 27.3476C10.7999 27.9098 11.0628 28.3143 11.4875 28.735C11.9122 29.1597 12.3127 29.4186 12.8749 29.637C13.2996 29.8028 13.9428 30.001 15.1198 30.0536C16.394 30.1102 16.7742 30.1224 20.002 30.1224C23.2299 30.1224 23.6101 30.1102 24.8842 30.0536C26.0613 30.001 26.7004 29.8028 27.1291 29.637C27.6914 29.4186 28.0959 29.1556 28.5165 28.735C28.9413 28.3103 29.2001 27.9098 29.4226 27.3476C29.5884 26.9229 29.7826 26.2797 29.8392 25.1027C29.8959 23.8285 29.908 23.4442 29.908 20.2205C29.908 16.9926 29.8959 16.6124 29.8392 15.3383C29.7826 14.1572 29.5884 13.5181 29.4226 13.0933ZM20.002 26.4253C16.576 26.4253 13.7972 23.6465 13.7972 20.2205C13.7972 16.7944 16.576 14.0156 20.002 14.0156C23.4281 14.0156 26.2069 16.7944 26.2069 20.2205C26.2069 23.6465 23.4281 26.4253 20.002 26.4253ZM26.4496 15.221C25.6487 15.221 24.9975 14.5697 24.9975 13.7688C24.9975 12.968 25.6487 12.3167 26.4496 12.3167C27.2505 12.3167 27.8977 12.968 27.8977 13.7688C27.9017 14.5697 27.2505 15.221 26.4496 15.221ZM24.0267 20.2205C24.0267 22.4452 22.2227 24.2492 19.998 24.2492C17.7733 24.2492 15.9693 22.4452 15.9693 20.2205C15.9693 17.9958 17.7733 16.1917 19.998 16.1917C22.2267 16.1917 24.0267 17.9958 24.0267 20.2205ZM20.002 0C8.95541 0 0 8.95541 0 20.002C0 31.0487 8.95541 40.0041 20.002 40.0041C31.0487 40.0041 40.0041 31.0487 40.0041 20.002C40 8.95541 31.0446 0 20.002 0ZM32.0113 25.2038C31.9547 26.4901 31.7484 27.3678 31.4491 28.1363C31.1417 28.9332 30.7291 29.6046 30.0536 30.2761C29.3822 30.9475 28.7067 31.3601 27.9139 31.6716C27.1453 31.9709 26.2676 32.1731 24.9813 32.2338C23.691 32.2904 23.2824 32.3066 19.998 32.3066C16.7176 32.3066 16.305 32.2945 15.0147 32.2338C13.7284 32.1731 12.8506 31.9709 12.0821 31.6716C11.2853 31.3642 10.6138 30.9516 9.94236 30.2761C9.27091 29.6046 8.85833 28.9291 8.54687 28.1363C8.24755 27.3678 8.04531 26.4901 7.98463 25.2038C7.92396 23.9135 7.91182 23.5049 7.91182 20.2205C7.91182 16.94 7.928 16.5275 7.98463 15.2371C8.04126 13.9509 8.24755 13.0731 8.54687 12.3046C8.85429 11.5118 9.26687 10.8363 9.94236 10.1648C10.6138 9.49338 11.2893 9.0808 12.0821 8.77339C12.8506 8.47407 13.7284 8.27182 15.0147 8.21115C16.305 8.15047 16.7135 8.13834 19.998 8.13834C23.2784 8.13834 23.691 8.15047 24.9813 8.21115C26.2676 8.27182 27.1453 8.47407 27.9139 8.77339C28.7107 9.0808 29.3822 9.49338 30.0536 10.1648C30.7251 10.8363 31.1376 11.5118 31.4491 12.3046C31.7484 13.0731 31.9507 13.9509 32.0113 15.2371C32.072 16.5275 32.0841 16.936 32.0841 20.2205C32.0841 23.5009 32.072 23.9135 32.0113 25.2038Z" fill="white"/>
</g>
<defs>
<clipPath id="clip0">
<rect width="40" height="40" fill="white"/>
</clipPath>
</defs>
</svg>
