<svg width="40" height="40" viewBox="0 0 40 40" fill="none" xmlns="http://www.w3.org/2000/svg">
<g opacity="0.4" clip-path="url(#clip0)">
<path d="M20.002 0C8.95541 0 0 8.95541 0 20.002C0 31.0486 8.95541 40.0041 20.002 40.0041C31.0486 40.0041 40.0041 31.0486 40.0041 20.002C40.0041 8.95541 31.0446 0 20.002 0ZM13.963 30.0779H9.09293V14.416H13.967V30.0779H13.963ZM11.528 12.2763C9.96663 12.2763 8.70462 11.0102 8.70462 9.45293C8.70462 7.89564 9.96663 6.63363 11.528 6.63363C13.0852 6.63363 14.3473 7.89969 14.3473 9.45293C14.3513 11.0102 13.0893 12.2763 11.528 12.2763ZM32.1893 30.0779H27.3273V22.4613C27.3273 20.6452 27.2909 18.3072 24.7952 18.3072C22.2631 18.3072 21.8748 20.2852 21.8748 22.3278V30.0738H17.0169V14.416H21.6807V16.5558H21.7454C22.3966 15.3261 23.9822 14.0277 26.3525 14.0277C31.2752 14.0277 32.1853 17.2717 32.1853 21.4865V30.0779H32.1893Z" fill="white"/>
</g>
<defs>
<clipPath id="clip0">
<rect width="40" height="40" fill="white"/>
</clipPath>
</defs>
</svg>
